<svg xmlns="http://www.w3.org/2000/svg" xmlns:xlink="http://www.w3.org/1999/xlink" width="500" zoomAndPan="magnify" viewBox="0 0 375 374.999991" height="500" preserveAspectRatio="xMidYMid meet" version="1.0"><defs><g/><clipPath id="79803760c3"><path d="M 6.308594 59.3125 L 368.558594 59.3125 L 368.558594 327.8125 L 6.308594 327.8125 Z M 6.308594 59.3125 " clip-rule="nonzero"/></clipPath></defs><g clip-path="url(#79803760c3)"><path fill="#a5241b" d="M 6.308594 59.3125 L 368.558594 59.3125 L 368.558594 327.8125 L 6.308594 327.8125 Z M 6.308594 59.3125 " fill-opacity="1" fill-rule="nonzero"/></g><g fill="#f4f4f4" fill-opacity="1"><g transform="translate(18.164127, 244.722973)"><g><path d="M 147.078125 0 L 139.109375 -26.671875 L 72.84375 -26.671875 L 64.875 0 L 2.75 0 L 71.75 -189.140625 L 142.40625 -189.140625 L 211.40625 0 Z M 85.5 -69 L 126.453125 -69 L 106.65625 -136.359375 L 105.5625 -136.359375 Z M 85.5 -69 "/></g></g></g><g fill="#f4f4f4" fill-opacity="1"><g transform="translate(180.733304, 336.609135)"><g><path d="M 147.078125 0 L 139.109375 -26.671875 L 72.84375 -26.671875 L 64.875 0 L 2.75 0 L 71.75 -189.140625 L 142.40625 -189.140625 L 211.40625 0 Z M 85.5 -69 L 126.453125 -69 L 106.65625 -136.359375 L 105.5625 -136.359375 Z M 85.5 -69 "/></g></g></g></svg>